<svg width="20" height="94" viewBox="0 0 20 94" fill="none" xmlns="http://www.w3.org/2000/svg">
    <circle cx="10" cy="10" r="10" fill="#0A3E95"/>
    <circle cx="10" cy="24.5" r="1.5" fill="#0A3E95"/>
    <circle cx="10" cy="30.5" r="1.5" fill="#0A3E95"/>
    <circle cx="10" cy="36.5" r="1.5" fill="#0A3E95"/>
    <circle cx="10" cy="42.5" r="1.5" fill="#0A3E95"/>
    <circle cx="10" cy="48.5" r="1.5" fill="#0A3E95"/>
    <circle cx="10" cy="54.5" r="1.5" fill="#0A3E95"/>
    <circle cx="10" cy="60.5" r="1.5" fill="#0A3E95"/>
    <circle cx="10" cy="66.5" r="1.5" fill="#0A3E95"/>
    <path d="M17.5 10C17.5 14.1421 14.1421 17.5 10 17.5C5.85786 17.5 2.5 14.1421 2.5 10C2.5 5.85786 5.85786 2.5 10 2.5C14.1421 2.5 17.5 5.85786 17.5 10Z" fill="#F1F1F1"/>
    <path d="M18.5 80C18.5 84.9706 10.5 93 10 93.5C9.5 93 1.5 85 1.5 80C1.5 75.0294 5.02944 71 10 71C14.9706 71 18.5 75.0294 18.5 80Z" fill="#0A3E95"/>
    <path d="M14.5 79.5C14.5 81.9853 12.4853 84 10 84C7.51472 84 5.5 81.9853 5.5 79.5C5.5 77.0147 7.51472 75 10 75C12.4853 75 14.5 77.0147 14.5 79.5Z" fill="#F1F1F1"/>
</svg>
