<?xml version="1.0" encoding="utf-8"?>
<svg viewBox="7.854 8.702 317.248 464.785" xmlns="http://www.w3.org/2000/svg">
  <path fill="#009CA6" opacity="1.000000" stroke="none" d=" M204.099915,31.950281 C240.904221,44.135376 277.308441,56.270756 313.834534,68.446754 C313.834534,80.822304 313.834534,93.117561 313.834534,106.086441 C311.581207,105.634155 309.540894,105.444855 307.648621,104.812553 C262.246246,89.641388 216.881470,74.356827 171.422501,59.357632 C168.313629,58.331863 164.246704,58.547424 161.087021,59.587833 C115.002136,74.762527 68.996529,90.177925 22.966387,105.519058 C22.218206,105.768417 21.399921,105.807426 20.022312,106.047958 C20.022312,93.806686 19.928282,81.866913 20.190004,69.934937 C20.212406,68.913513 22.451750,67.506081 23.909575,67.014618 C56.730812,55.950069 89.584167,44.980682 122.437614,34.011799 C135.920410,29.510252 149.401215,25.001085 162.927170,20.632420 C164.791824,20.030172 167.118622,19.581692 168.881729,20.148973 C180.541107,23.900370 192.104889,27.948841 204.099915,31.950281 z"/>
  <path fill="#009CA6" opacity="1.000000" stroke="none" d=" M67.888878,368.997437 C51.348930,370.778870 35.144337,372.032532 20.017897,380.577423 C20.017897,368.121460 19.773277,356.044373 20.291325,344.000122 C20.365879,342.266815 23.881504,339.808014 26.202068,339.198853 C35.340561,336.800079 44.573215,334.618683 53.889168,333.066071 C74.478439,329.634705 95.275436,329.010406 116.125839,328.940521 C152.564774,328.818390 189.012268,328.735443 225.437088,327.850464 C247.590469,327.312256 269.580017,324.582947 290.669067,316.994263 C299.624420,313.771729 308.144745,308.216095 313.460602,301.496613 C313.695435,303.257324 313.973969,304.394440 313.978760,305.532684 C314.015594,314.365631 313.452972,323.242859 314.160400,332.018951 C314.811310,340.094696 310.705505,344.270538 304.636261,348.163696 C293.786255,355.123505 281.620087,358.507019 269.298553,360.772736 C256.895905,363.053345 244.206192,364.536530 231.606079,364.833221 C196.846039,365.651550 162.066406,365.610992 127.295937,366.028229 C113.855049,366.189484 100.411499,366.513123 86.982048,367.072327 C80.755386,367.331604 74.559563,368.331543 67.888878,368.997437 z"/>
  <path fill="#009CA6" opacity="1.000000" stroke="none" d=" M304.737183,370.776672 C307.782684,368.135315 310.556702,365.741425 313.999084,362.770752 C313.999084,374.692657 314.222961,386.090637 313.830383,397.467346 C313.740295,400.077362 312.116394,403.257019 310.162750,405.039429 C306.949310,407.971252 303.088196,410.383331 299.151642,412.297913 C285.636871,418.871002 271.128326,421.967255 256.327637,424.025360 C220.130493,429.058716 183.732361,426.296692 147.424194,426.974884 C138.430542,427.142883 129.417953,426.687439 120.437027,427.064941 C101.618561,427.855927 82.728226,428.216217 64.033623,430.267914 C49.231457,431.892456 33.984509,433.092346 20.012285,441.754883 C20.012285,429.172913 19.890728,417.128174 20.180305,405.093353 C20.213104,403.730255 22.346834,401.627655 23.869148,401.218811 C33.616665,398.600922 43.364170,395.736053 53.301666,394.122406 C76.198036,390.404419 99.334381,389.949890 122.508163,389.922394 C157.601807,389.880768 192.705872,389.759094 227.784241,388.850586 C251.271957,388.242188 274.476898,384.878906 296.432770,375.741455 C299.272888,374.559448 301.795837,372.615265 304.737183,370.776672 z"/>
  <path fill="#009CA6" opacity="1.000000" stroke="none" d=" M314.000000,140.987045 C314.000000,145.450638 314.000000,149.416534 314.000000,153.686371 C215.928085,153.686371 118.264236,153.686371 20.300049,153.686371 C20.300049,141.981857 20.300049,130.393448 20.300049,118.401276 C117.895828,118.401276 215.559967,118.401276 314.000000,118.401276 C314.000000,125.653709 314.000000,133.071533 314.000000,140.987045 z"/>
  <path fill="#009CA6" opacity="1.000000" stroke="none" d=" M144.999176,301.804321 C144.160873,303.517670 143.342575,305.810852 142.482498,305.826630 C129.867935,306.057953 117.247810,305.985718 104.316544,305.985718 C104.316544,262.924164 104.316544,220.250137 104.316544,177.287750 C117.704620,177.287750 130.953720,177.287750 144.999741,177.287750 C144.999741,218.598450 144.999741,259.961731 144.999176,301.804321 z"/>
  <path fill="#009CA6" opacity="1.000000" stroke="none" d=" M60.000000,286.999329 C60.000000,293.458527 60.000000,299.417938 60.000000,305.685791 C46.684452,305.685791 33.769405,305.685791 20.426235,305.685791 C20.426235,263.146729 20.426235,220.476562 20.426235,177.402649 C33.254589,177.402649 46.287834,177.402649 60.000000,177.402649 C60.000000,213.737595 60.000000,250.118546 60.000000,286.999329 z"/>
  <path fill="#009CA6" opacity="1.000000" stroke="none" d=" M189.000000,283.999878 C189.000000,248.236755 189.000000,212.973557 189.000000,177.355682 C202.352051,177.355682 215.384094,177.355682 228.709503,177.355682 C228.709503,220.124390 228.709503,262.794434 228.709503,305.732391 C215.588303,305.732391 202.673859,305.732391 189.000000,305.732391 C189.000000,298.664032 189.000000,291.581940 189.000000,283.999878 z"/>
  <path fill="#009CA6" opacity="1.000000" stroke="none" d=" M273.000000,288.948059 C273.000000,251.529266 273.000000,214.601227 273.000000,177.337189 C286.724762,177.337189 300.090973,177.337189 313.999969,177.337189 C313.999969,179.267502 313.999969,181.048660 313.999969,182.829819 C313.999969,211.961609 313.601044,241.102219 314.244629,270.219788 C314.436188,278.886658 311.089966,284.443939 304.244446,287.744720 C294.485229,292.450439 284.195526,296.055969 273.000000,300.590057 C273.000000,295.651642 273.000000,292.545258 273.000000,288.948059 z"/>
</svg>