<svg width="22" height="30" viewBox="0 0 22 30" fill="none" xmlns="http://www.w3.org/2000/svg">
<path d="M10.8943 11.5729C11.2176 11.5729 11.4885 11.4419 11.7072 11.1799C11.9258 10.9179 12.0352 10.5932 12.0352 10.2059C12.0352 9.81864 11.9258 9.49399 11.7072 9.23199C11.4885 8.97 11.2176 8.839 10.8943 8.839C10.5711 8.839 10.3002 8.97 10.0815 9.23199C9.86285 9.49399 9.75352 9.81864 9.75352 10.2059C9.75352 10.5932 9.86285 10.9179 10.0815 11.1799C10.3002 11.4419 10.5711 11.5729 10.8943 11.5729ZM10.8943 19.7746C10.1528 19.7746 9.48258 19.5296 8.88365 19.0398C8.28472 18.55 7.85216 17.9064 7.58596 17.109C7.4909 17.109 7.40533 17.1147 7.32928 17.1261C7.25322 17.1375 7.16766 17.1432 7.07259 17.1432C6.08388 17.1432 5.23777 16.7217 4.53427 15.8788C3.83076 15.0358 3.47901 14.022 3.47901 12.8373C3.47901 12.3589 3.54555 11.8975 3.67865 11.4533C3.81175 11.009 4.01139 10.5932 4.27758 10.2059C4.0304 9.81864 3.84027 9.40286 3.70717 8.9586C3.57408 8.51435 3.50753 8.053 3.50753 7.57457C3.50753 6.38989 3.85453 5.37607 4.54853 4.53312C5.24253 3.69017 6.08388 3.2687 7.07259 3.2687C7.16766 3.2687 7.25322 3.27439 7.32928 3.28578C7.40533 3.29718 7.4909 3.30287 7.58596 3.30287C7.85216 2.50549 8.28472 1.86188 8.88365 1.37206C9.48258 0.88224 10.1528 0.637329 10.8943 0.637329C11.6359 0.637329 12.3061 0.88224 12.905 1.37206C13.504 1.86188 13.9365 2.50549 14.2027 3.30287C14.2978 3.30287 14.3834 3.29718 14.4594 3.28578C14.5355 3.27439 14.621 3.2687 14.7161 3.2687C15.7048 3.2687 16.5462 3.69017 17.2402 4.53312C17.9342 5.37607 18.2812 6.38989 18.2812 7.57457C18.2812 8.053 18.2194 8.51435 18.0958 8.9586C17.9722 9.40286 17.7773 9.81864 17.5111 10.2059C17.7583 10.5932 17.9484 11.009 18.0815 11.4533C18.2146 11.8975 18.2812 12.3589 18.2812 12.8373C18.2812 14.022 17.9342 15.0358 17.2402 15.8788C16.5462 16.7217 15.7048 17.1432 14.7161 17.1432C14.621 17.1432 14.5355 17.1375 14.4594 17.1261C14.3834 17.1147 14.2978 17.109 14.2027 17.109C13.9365 17.9064 13.504 18.55 12.905 19.0398C12.3061 19.5296 11.6359 19.7746 10.8943 19.7746ZM10.8943 29.3432C10.8943 27.6573 11.1653 26.0682 11.7072 24.5759C12.2491 23.0837 12.9859 21.7794 13.9175 20.6631C14.8492 19.5467 15.9377 18.6639 17.1831 18.0146C18.4285 17.3653 19.7547 17.0407 21.1617 17.0407C21.1617 18.7266 20.8908 20.3156 20.3489 21.8079C19.807 23.3001 19.0702 24.6044 18.1386 25.7208C17.2069 26.8371 16.1184 27.7199 14.873 28.3692C13.6276 29.0185 12.3014 29.3432 10.8943 29.3432ZM13.6894 25.9942C14.7731 25.5157 15.7238 24.7867 16.5414 23.807C17.359 22.8274 17.9674 21.6883 18.3667 20.3897C17.2829 20.8681 16.3323 21.5971 15.5147 22.5768C14.6971 23.5564 14.0886 24.6956 13.6894 25.9942ZM10.8943 29.3432C10.8943 27.6573 10.6234 26.0682 10.0815 24.5759C9.53962 23.0837 8.80284 21.7794 7.87117 20.6631C6.9395 19.5467 5.85096 18.6639 4.60557 18.0146C3.36017 17.3653 2.03397 17.0407 0.626953 17.0407C0.626953 18.7266 0.897898 20.3156 1.43979 21.8079C1.98168 23.3001 2.71846 24.6044 3.65013 25.7208C4.5818 26.8371 5.67033 27.7199 6.91573 28.3692C8.16113 29.0185 9.48733 29.3432 10.8943 29.3432ZM8.09933 25.9942C7.01555 25.5157 6.06487 24.7867 5.24728 23.807C4.42969 22.8274 3.82125 21.6883 3.42197 20.3897C4.50575 20.8681 5.45643 21.5971 6.27402 22.5768C7.09161 23.5564 7.70005 24.6956 8.09933 25.9942ZM14.7161 14.4093C15.0774 14.4093 15.3863 14.2555 15.643 13.948C15.8997 13.6404 16.028 13.2702 16.028 12.8373C16.028 12.5184 15.9567 12.2393 15.8141 12.0001C15.6715 11.7608 15.4862 11.5729 15.258 11.4362L14.2598 10.8552C14.2217 11.1058 14.1647 11.3508 14.0886 11.59C14.0126 11.8292 13.927 12.0513 13.832 12.2564C13.7369 12.4614 13.6228 12.6551 13.4897 12.8373C13.3566 13.0196 13.214 13.1904 13.0619 13.3499L13.9746 14.1359C14.0696 14.227 14.179 14.2954 14.3025 14.3409C14.4261 14.3865 14.564 14.4093 14.7161 14.4093ZM14.2598 9.55664L15.258 8.97569C15.4862 8.839 15.6668 8.64535 15.7999 8.39474C15.933 8.14413 15.9995 7.87074 15.9995 7.57457C15.9995 7.14171 15.8759 6.77149 15.6288 6.46393C15.3816 6.15637 15.0774 6.00259 14.7161 6.00259C14.564 6.00259 14.4309 6.02537 14.3168 6.07093C14.2027 6.1165 14.0886 6.18485 13.9746 6.27598L13.0334 7.06197C13.1855 7.22145 13.3329 7.39231 13.4755 7.57457C13.6181 7.75683 13.7369 7.95048 13.832 8.15552C13.927 8.36057 14.0126 8.58269 14.0886 8.82191C14.1647 9.06113 14.2217 9.30604 14.2598 9.55664ZM9.725 6.3785C9.91514 6.28737 10.1053 6.21902 10.2954 6.17345C10.4856 6.12789 10.6852 6.10511 10.8943 6.10511C11.1035 6.10511 11.3031 6.12789 11.4933 6.17345C11.6834 6.21902 11.8736 6.28737 12.0637 6.3785L12.2063 4.87486C12.2443 4.46477 12.1255 4.11165 11.8498 3.81548C11.5741 3.5193 11.2556 3.37122 10.8943 3.37122C10.5331 3.37122 10.2146 3.5193 9.93891 3.81548C9.66321 4.11165 9.54437 4.46477 9.5824 4.87486L9.725 6.3785ZM10.8943 17.0407C11.2556 17.0407 11.5741 16.8926 11.8498 16.5964C12.1255 16.3002 12.2443 15.9471 12.2063 15.537L12.0637 14.0334C11.8736 14.1245 11.6834 14.1929 11.4933 14.2384C11.3031 14.284 11.1035 14.3068 10.8943 14.3068C10.6852 14.3068 10.4856 14.284 10.2954 14.2384C10.1053 14.1929 9.91514 14.1245 9.725 14.0334L9.5824 15.537C9.54437 15.9471 9.66321 16.3002 9.93891 16.5964C10.2146 16.8926 10.5331 17.0407 10.8943 17.0407ZM7.52892 9.55664C7.56695 9.30604 7.62399 9.06113 7.70005 8.82191C7.7761 8.58269 7.86166 8.36057 7.95673 8.15552C8.0518 7.95048 8.16588 7.75683 8.29898 7.57457C8.43207 7.39231 8.57468 7.22145 8.72679 7.06197L7.81413 6.27598C7.71906 6.18485 7.60973 6.1165 7.48614 6.07093C7.36255 6.02537 7.2247 6.00259 7.07259 6.00259C6.71133 6.00259 6.40236 6.15637 6.14568 6.46393C5.88899 6.77149 5.76065 7.14171 5.76065 7.57457C5.76065 7.87074 5.83195 8.14413 5.97455 8.39474C6.11716 8.64535 6.30254 8.839 6.5307 8.97569L7.52892 9.55664ZM7.07259 14.3751C7.2247 14.3751 7.3578 14.358 7.47188 14.3239C7.58596 14.2897 7.70005 14.2156 7.81413 14.1017L8.75531 13.3499C8.6032 13.1904 8.45584 13.0196 8.31324 12.8373C8.17063 12.6551 8.0518 12.4614 7.95673 12.2564C7.86166 12.0513 7.7761 11.8292 7.70005 11.59C7.62399 11.3508 7.56695 11.1058 7.52892 10.8552L6.5307 11.4362C6.30254 11.5729 6.12191 11.7665 5.98881 12.0171C5.85572 12.2677 5.78917 12.5411 5.78917 12.8373C5.80818 13.2702 5.93653 13.6347 6.1742 13.9309C6.41187 14.227 6.71133 14.3751 7.07259 14.3751Z" fill="#000000"/>
</svg>
