<svg width="158" height="165" viewBox="0 0 158 165" fill="none" xmlns="http://www.w3.org/2000/svg">
<path d="M15.7143 165V78.5714H0V31.4286H40.8571C40.2024 30.25 39.7768 29.006 39.5804 27.6964C39.3839 26.3869 39.2857 25.0119 39.2857 23.5714C39.2857 17.0238 41.5774 11.4583 46.1607 6.875C50.744 2.29167 56.3095 0 62.8571 0C65.869 0 68.6845 0.556548 71.3036 1.66964C73.9226 2.78274 76.3452 4.32143 78.5714 6.28571C80.7976 4.19048 83.2202 2.61905 85.8393 1.57143C88.4583 0.523809 91.2738 0 94.2857 0C100.833 0 106.399 2.29167 110.982 6.875C115.565 11.4583 117.857 17.0238 117.857 23.5714C117.857 25.0119 117.726 26.3542 117.464 27.5982C117.202 28.8423 116.81 30.119 116.286 31.4286H157.143V78.5714H141.429V165H15.7143ZM94.2857 15.7143C92.0595 15.7143 90.1935 16.4673 88.6875 17.9732C87.1815 19.4792 86.4286 21.3452 86.4286 23.5714C86.4286 25.7976 87.1815 27.6637 88.6875 29.1696C90.1935 30.6756 92.0595 31.4286 94.2857 31.4286C96.5119 31.4286 98.378 30.6756 99.8839 29.1696C101.39 27.6637 102.143 25.7976 102.143 23.5714C102.143 21.3452 101.39 19.4792 99.8839 17.9732C98.378 16.4673 96.5119 15.7143 94.2857 15.7143ZM55 23.5714C55 25.7976 55.753 27.6637 57.2589 29.1696C58.7649 30.6756 60.6309 31.4286 62.8571 31.4286C65.0833 31.4286 66.9494 30.6756 68.4554 29.1696C69.9613 27.6637 70.7143 25.7976 70.7143 23.5714C70.7143 21.3452 69.9613 19.4792 68.4554 17.9732C66.9494 16.4673 65.0833 15.7143 62.8571 15.7143C60.6309 15.7143 58.7649 16.4673 57.2589 17.9732C55.753 19.4792 55 21.3452 55 23.5714ZM15.7143 47.1429V62.8571H70.7143V47.1429H15.7143ZM70.7143 149.286V78.5714H31.4286V149.286H70.7143ZM86.4286 149.286H125.714V78.5714H86.4286V149.286ZM141.429 62.8571V47.1429H86.4286V62.8571H141.429Z" fill="#000000"/>
</svg>
