<svg width="29" height="37" viewBox="0 0 29 37" fill="none" xmlns="http://www.w3.org/2000/svg">
<path d="M9.12484 20.2917H12.7082V15.3646H16.2915V20.2917H19.8748V11.7813L14.4998 8.19796L9.12484 11.7813V20.2917ZM14.4998 31.6688C18.1429 28.3243 20.8453 25.286 22.6071 22.5537C24.3689 19.8214 25.2498 17.3952 25.2498 15.275C25.2498 12.0202 24.2122 9.35508 22.1368 7.27973C20.0615 5.20438 17.5158 4.16671 14.4998 4.16671C11.4839 4.16671 8.9382 5.20438 6.86286 7.27973C4.78751 9.35508 3.74984 12.0202 3.74984 15.275C3.74984 17.3952 4.63074 19.8214 6.39255 22.5537C8.15435 25.286 10.8568 28.3243 14.4998 31.6688ZM14.4998 36.4167C9.6922 32.3257 6.1014 28.5259 3.72744 25.0172C1.35348 21.5085 0.166504 18.2612 0.166504 15.275C0.166504 10.7959 1.6073 7.22747 4.4889 4.56983C7.3705 1.91219 10.7075 0.583374 14.4998 0.583374C18.2922 0.583374 21.6292 1.91219 24.5108 4.56983C27.3924 7.22747 28.8332 10.7959 28.8332 15.275C28.8332 18.2612 27.6462 21.5085 25.2722 25.0172C22.8983 28.5259 19.3075 32.3257 14.4998 36.4167Z" fill="#000000"/>
</svg>
