<svg width="38" height="38" viewBox="0 0 38 38" fill="none" xmlns="http://www.w3.org/2000/svg">
<path d="M25.3333 38L12.6667 33.5667L2.85 37.3667C2.1463 37.6481 1.49537 37.569 0.897222 37.1292C0.299074 36.6894 0 36.1 0 35.3611V5.80556C0 5.34815 0.131944 4.94352 0.395833 4.59167C0.659722 4.23981 1.02037 3.97593 1.47778 3.8L12.6667 0L25.3333 4.43333L35.15 0.633333C35.8537 0.351852 36.5046 0.431019 37.1028 0.870833C37.7009 1.31065 38 1.9 38 2.63889V32.1944C38 32.6519 37.8681 33.0565 37.6042 33.4083C37.3403 33.7602 36.9796 34.0241 36.5222 34.2L25.3333 38ZM23.2222 32.8278V8.12778L14.7778 5.17222V29.8722L23.2222 32.8278ZM27.4444 32.8278L33.7778 30.7167V5.7L27.4444 8.12778V32.8278ZM4.22222 32.3L10.5556 29.8722V5.17222L4.22222 7.28333V32.3Z" fill="#000000"/>
</svg>
