<svg width="17" height="25" viewBox="0 0 17 25" fill="none" xmlns="http://www.w3.org/2000/svg">
<path d="M7.18321 20.1919H10.6057V16.7745H13.4577V12.6737H10.6057V9.25635H7.18321V12.6737H4.33116V16.7745H7.18321V20.1919ZM3.19033 24.9762C2.56288 24.9762 2.02575 24.7085 1.57892 24.1731C1.1321 23.6377 0.908691 22.9941 0.908691 22.2423V7.20594C0.908691 6.45412 1.1321 5.81052 1.57892 5.27513C2.02575 4.73974 2.56288 4.47205 3.19033 4.47205H14.5985C15.226 4.47205 15.7631 4.73974 16.21 5.27513C16.6568 5.81052 16.8802 6.45412 16.8802 7.20594V22.2423C16.8802 22.9941 16.6568 23.6377 16.21 24.1731C15.7631 24.7085 15.226 24.9762 14.5985 24.9762H3.19033ZM3.19033 22.2423H14.5985V7.20594H3.19033V22.2423ZM2.04951 3.1051V0.371216H15.7394V3.1051H2.04951Z" fill="#0A3E95"/>
</svg>
