<svg width="39" height="33" viewBox="0 0 39 33" fill="none" xmlns="http://www.w3.org/2000/svg">
<path d="M26.875 20.8334C25.2083 20.8334 23.7917 20.25 22.625 19.0834C21.4583 17.9167 20.875 16.5 20.875 14.8334C20.875 13.1667 21.4583 11.75 22.625 10.5834C23.7917 9.41671 25.2083 8.83337 26.875 8.83337C28.5417 8.83337 29.9583 9.41671 31.125 10.5834C32.2917 11.75 32.875 13.1667 32.875 14.8334C32.875 16.5 32.2917 17.9167 31.125 19.0834C29.9583 20.25 28.5417 20.8334 26.875 20.8334ZM14.875 32.8334V29.0334C14.875 28.3334 15.0417 27.6667 15.375 27.0334C15.7083 26.4 16.175 25.9 16.775 25.5334C18.275 24.6334 19.8667 23.9584 21.55 23.5084C23.2333 23.0584 25.0083 22.8334 26.875 22.8334C28.7417 22.8334 30.5167 23.0584 32.2 23.5084C33.8833 23.9584 35.475 24.6334 36.975 25.5334C37.575 25.9 38.0417 26.4 38.375 27.0334C38.7083 27.6667 38.875 28.3334 38.875 29.0334V32.8334H14.875ZM19.175 28.8334H34.575C33.4083 28.1667 32.175 27.6667 30.875 27.3334C29.575 27 28.2417 26.8334 26.875 26.8334C25.5083 26.8334 24.175 27 22.875 27.3334C21.575 27.6667 20.3417 28.1667 19.175 28.8334ZM26.875 16.8334C27.4417 16.8334 27.9167 16.6417 28.3 16.2584C28.6833 15.875 28.875 15.4 28.875 14.8334C28.875 14.2667 28.6833 13.7917 28.3 13.4084C27.9167 13.025 27.4417 12.8334 26.875 12.8334C26.3083 12.8334 25.8333 13.025 25.45 13.4084C25.0667 13.7917 24.875 14.2667 24.875 14.8334C24.875 15.4 25.0667 15.875 25.45 16.2584C25.8333 16.6417 26.3083 16.8334 26.875 16.8334ZM0.875 20.8334V16.8334H16.875V20.8334H0.875ZM0.875 4.83337V0.833374H24.875V4.83337H0.875ZM17.075 12.8334H0.875V8.83337H18.875C18.4083 9.40004 18.0333 10.0167 17.75 10.6834C17.4667 11.35 17.2417 12.0667 17.075 12.8334Z" fill="#003B9C"/>
</svg>
