<svg width="27" height="27" viewBox="0 0 27 27" fill="none" xmlns="http://www.w3.org/2000/svg">
<path d="M17.955 19.845L19.845 17.955L14.85 12.96V6.75H12.15V14.04L17.955 19.845ZM13.5 27C11.6325 27 9.8775 26.6456 8.235 25.9369C6.5925 25.2281 5.16375 24.2663 3.94875 23.0513C2.73375 21.8363 1.77188 20.4075 1.06313 18.765C0.354375 17.1225 0 15.3675 0 13.5C0 11.6325 0.354375 9.8775 1.06313 8.235C1.77188 6.5925 2.73375 5.16375 3.94875 3.94875C5.16375 2.73375 6.5925 1.77188 8.235 1.06313C9.8775 0.354375 11.6325 0 13.5 0C15.3675 0 17.1225 0.354375 18.765 1.06313C20.4075 1.77188 21.8363 2.73375 23.0513 3.94875C24.2663 5.16375 25.2281 6.5925 25.9369 8.235C26.6456 9.8775 27 11.6325 27 13.5C27 15.3675 26.6456 17.1225 25.9369 18.765C25.2281 20.4075 24.2663 21.8363 23.0513 23.0513C21.8363 24.2663 20.4075 25.2281 18.765 25.9369C17.1225 26.6456 15.3675 27 13.5 27ZM13.5 24.3C16.4925 24.3 19.0406 23.2481 21.1444 21.1444C23.2481 19.0406 24.3 16.4925 24.3 13.5C24.3 10.5075 23.2481 7.95938 21.1444 5.85563C19.0406 3.75188 16.4925 2.7 13.5 2.7C10.5075 2.7 7.95938 3.75188 5.85563 5.85563C3.75188 7.95938 2.7 10.5075 2.7 13.5C2.7 16.4925 3.75188 19.0406 5.85563 21.1444C7.95938 23.2481 10.5075 24.3 13.5 24.3Z" fill="#0A3E95"/>
</svg>
