<svg width="20" height="28" viewBox="0 0 20 28" fill="none" xmlns="http://www.w3.org/2000/svg">
<path d="M9.89464 27.343C7.25173 26.5457 5.06991 24.7288 3.34917 21.8923C1.62844 19.0559 0.768066 15.9063 0.768066 12.4433V4.10498L9.89464 0.00415039L19.0212 4.10498V12.4433C19.0212 15.9063 18.1608 19.0559 16.4401 21.8923C14.7194 24.7288 12.5375 26.5457 9.89464 27.343ZM9.89464 24.4725C11.739 23.789 13.2791 22.4391 14.515 20.4229C15.7509 18.4066 16.4734 16.1569 16.6825 13.6736H9.89464V2.90891L3.04971 5.98453V13.0585C3.04971 13.2179 3.06872 13.423 3.10675 13.6736H9.89464V24.4725Z" fill="#0A3E95"/>
</svg>
