<svg width="165" height="165" viewBox="0 0 165 165" fill="none" xmlns="http://www.w3.org/2000/svg">
<path d="M111.375 122.925L122.925 111.375C123.75 110.55 124.162 109.588 124.162 108.487C124.162 107.387 123.75 106.425 122.925 105.6L94.875 77.3438C95.425 75.8312 95.8375 74.3187 96.1125 72.8063C96.3875 71.2937 96.525 69.575 96.525 67.65C96.525 59.8125 93.7406 53.1094 88.1719 47.5406C82.6031 41.9719 75.9 39.1875 68.0625 39.1875C65.725 39.1875 63.3875 39.4969 61.05 40.1156C58.7125 40.7344 56.4437 41.5938 54.2437 42.6937L73.6312 62.0812L62.0812 73.6312L42.6937 54.2437C41.5938 56.4437 40.7344 58.7125 40.1156 61.05C39.4969 63.3875 39.1875 65.725 39.1875 68.0625C39.1875 75.9 41.9719 82.6031 47.5406 88.1719C53.1094 93.7406 59.8125 96.525 67.65 96.525C69.4375 96.525 71.1219 96.3875 72.7031 96.1125C74.2844 95.8375 75.8312 95.425 77.3438 94.875L105.6 122.925C106.425 123.75 107.387 124.162 108.487 124.162C109.588 124.162 110.55 123.75 111.375 122.925ZM82.5 165C71.0875 165 60.3625 162.834 50.325 158.503C40.2875 154.172 31.5562 148.294 24.1313 140.869C16.7062 133.444 10.8281 124.713 6.49687 114.675C2.16562 104.637 0 93.9125 0 82.5C0 71.0875 2.16562 60.3625 6.49687 50.325C10.8281 40.2875 16.7062 31.5562 24.1313 24.1313C31.5562 16.7062 40.2875 10.8281 50.325 6.49687C60.3625 2.16562 71.0875 0 82.5 0C93.9125 0 104.637 2.16562 114.675 6.49687C124.713 10.8281 133.444 16.7062 140.869 24.1313C148.294 31.5562 154.172 40.2875 158.503 50.325C162.834 60.3625 165 71.0875 165 82.5C165 93.9125 162.834 104.637 158.503 114.675C154.172 124.713 148.294 133.444 140.869 140.869C133.444 148.294 124.713 154.172 114.675 158.503C104.637 162.834 93.9125 165 82.5 165ZM82.5 148.5C100.925 148.5 116.531 142.106 129.319 129.319C142.106 116.531 148.5 100.925 148.5 82.5C148.5 64.075 142.106 48.4688 129.319 35.6812C116.531 22.8937 100.925 16.5 82.5 16.5C64.075 16.5 48.4688 22.8937 35.6812 35.6812C22.8937 48.4688 16.5 64.075 16.5 82.5C16.5 100.925 22.8937 116.531 35.6812 129.319C48.4688 142.106 64.075 148.5 82.5 148.5Z" fill="black"/>
</svg>
