<svg width="131" height="89" viewBox="0 0 131 89" fill="none" xmlns="http://www.w3.org/2000/svg">
<g filter="url(#filter0_d_643_3927)">
<g filter="url(#filter1_d_643_3927)">
<path d="M68.8354 65.1548C66.506 66.6804 63.494 66.6804 61.1646 65.1548L22.6804 39.9488C18.3286 37.0985 20.3469 30.3335 25.549 30.3335C26.4985 30.3335 27.43 30.5917 28.244 31.0804L61.3968 50.985C63.6144 52.3164 66.3856 52.3164 68.6032 50.985L101.756 31.0804C102.57 30.5917 103.502 30.3335 104.451 30.3335C109.653 30.3335 111.671 37.0985 107.32 39.9488L68.8354 65.1548Z" fill="white"/>
</g>
<g filter="url(#filter2_d_643_3927)">
<path d="M7.86932 1.54545L12.4119 15.2841H12.5909L17.125 1.54545H20.6023L14.4489 19H10.5455L4.40057 1.54545H7.86932ZM22.7649 19V5.90909H25.8501V19H22.7649ZM24.3161 4.05114C23.8274 4.05114 23.407 3.8892 23.0547 3.56534C22.7024 3.23579 22.5263 2.84091 22.5263 2.38068C22.5263 1.91477 22.7024 1.51989 23.0547 1.19602C23.407 0.866477 23.8274 0.701704 24.3161 0.701704C24.8104 0.701704 25.2308 0.866477 25.5774 1.19602C25.9297 1.51989 26.1058 1.91477 26.1058 2.38068C26.1058 2.84091 25.9297 3.23579 25.5774 3.56534C25.2308 3.8892 24.8104 4.05114 24.3161 4.05114ZM34.8182 19.2557C33.5057 19.2557 32.3722 18.983 31.4176 18.4375C30.4688 17.8864 29.7386 17.108 29.2273 16.1023C28.7159 15.0909 28.4602 13.9006 28.4602 12.5312C28.4602 11.1847 28.7159 10.0028 29.2273 8.9858C29.7443 7.96307 30.4659 7.16761 31.392 6.59943C32.3182 6.02557 33.4062 5.73864 34.6562 5.73864C35.4631 5.73864 36.2244 5.86932 36.9403 6.13068C37.6619 6.38636 38.2983 6.78409 38.8494 7.32386C39.4063 7.86364 39.8438 8.55114 40.1619 9.38636C40.4801 10.2159 40.6392 11.2045 40.6392 12.3523V13.2983H29.9091V11.2188H37.6818C37.6761 10.6278 37.5483 10.1023 37.2983 9.64205C37.0483 9.17614 36.6989 8.80966 36.25 8.54261C35.8068 8.27557 35.2898 8.14205 34.6989 8.14205C34.0682 8.14205 33.5142 8.29545 33.0369 8.60227C32.5597 8.90341 32.1875 9.30114 31.9205 9.79545C31.6591 10.2841 31.5256 10.821 31.5199 11.4062V13.2216C31.5199 13.983 31.6591 14.6364 31.9375 15.1818C32.2159 15.7216 32.6051 16.1364 33.1051 16.4261C33.6051 16.7102 34.1903 16.8523 34.8608 16.8523C35.3097 16.8523 35.7159 16.7898 36.0795 16.6648C36.4432 16.5341 36.7585 16.3438 37.0256 16.0938C37.2926 15.8438 37.4943 15.5341 37.6307 15.1648L40.5114 15.4886C40.3295 16.25 39.983 16.9148 39.4716 17.483C38.9659 18.0455 38.3182 18.483 37.5284 18.7955C36.7386 19.1023 35.8352 19.2557 34.8182 19.2557ZM45.8807 19L42.1818 5.90909H45.3267L47.6278 15.1136H47.7472L50.0994 5.90909H53.2102L55.5625 15.0625H55.6903L57.9574 5.90909H61.1108L57.4034 19H54.1903L51.7358 10.1534H51.5568L49.1023 19H45.8807ZM69.3544 1.54545H73.2237L78.4055 14.1932H78.6101L83.7919 1.54545H87.6612V19H84.6271V7.00852H84.4652L79.6413 18.9489H77.3743L72.5504 6.98295H72.3885V19H69.3544V1.54545ZM96.6783 19.2557C95.3999 19.2557 94.2919 18.9744 93.3544 18.4119C92.4169 17.8494 91.6896 17.0625 91.1726 16.0511C90.6612 15.0398 90.4055 13.858 90.4055 12.5057C90.4055 11.1534 90.6612 9.96875 91.1726 8.9517C91.6896 7.93466 92.4169 7.14489 93.3544 6.58239C94.2919 6.01989 95.3999 5.73864 96.6783 5.73864C97.9567 5.73864 99.0646 6.01989 100.002 6.58239C100.94 7.14489 101.664 7.93466 102.175 8.9517C102.692 9.96875 102.951 11.1534 102.951 12.5057C102.951 13.858 102.692 15.0398 102.175 16.0511C101.664 17.0625 100.94 17.8494 100.002 18.4119C99.0646 18.9744 97.9567 19.2557 96.6783 19.2557ZM96.6953 16.7841C97.3885 16.7841 97.968 16.5937 98.4339 16.2131C98.8999 15.8267 99.2464 15.3097 99.4737 14.6619C99.7067 14.0142 99.8232 13.2926 99.8232 12.4972C99.8232 11.696 99.7067 10.9716 99.4737 10.3239C99.2464 9.67045 98.8999 9.15057 98.4339 8.7642C97.968 8.37784 97.3885 8.18466 96.6953 8.18466C95.9851 8.18466 95.3942 8.37784 94.9226 8.7642C94.4567 9.15057 94.1072 9.67045 93.8743 10.3239C93.647 10.9716 93.5334 11.696 93.5334 12.4972C93.5334 13.2926 93.647 14.0142 93.8743 14.6619C94.1072 15.3097 94.4567 15.8267 94.9226 16.2131C95.3942 16.5937 95.9851 16.7841 96.6953 16.7841ZM105.57 19V5.90909H108.561V8.09091H108.697C108.936 7.33523 109.345 6.75284 109.925 6.34375C110.51 5.92898 111.178 5.72159 111.928 5.72159C112.098 5.72159 112.288 5.73011 112.499 5.74716C112.714 5.75852 112.893 5.77841 113.036 5.80682V8.64489C112.905 8.59943 112.697 8.55966 112.413 8.52557C112.135 8.4858 111.865 8.46591 111.604 8.46591C111.041 8.46591 110.536 8.58807 110.087 8.83239C109.643 9.07102 109.294 9.40341 109.038 9.82955C108.783 10.2557 108.655 10.7472 108.655 11.304V19H105.57ZM120.342 19.2557C119.029 19.2557 117.896 18.983 116.941 18.4375C115.992 17.8864 115.262 17.108 114.751 16.1023C114.239 15.0909 113.984 13.9006 113.984 12.5312C113.984 11.1847 114.239 10.0028 114.751 8.9858C115.268 7.96307 115.989 7.16761 116.915 6.59943C117.842 6.02557 118.93 5.73864 120.18 5.73864C120.987 5.73864 121.748 5.86932 122.464 6.13068C123.185 6.38636 123.822 6.78409 124.373 7.32386C124.93 7.86364 125.367 8.55114 125.685 9.38636C126.004 10.2159 126.163 11.2045 126.163 12.3523V13.2983H115.433V11.2188H123.205C123.2 10.6278 123.072 10.1023 122.822 9.64205C122.572 9.17614 122.222 8.80966 121.773 8.54261C121.33 8.27557 120.813 8.14205 120.222 8.14205C119.592 8.14205 119.038 8.29545 118.56 8.60227C118.083 8.90341 117.711 9.30114 117.444 9.79545C117.183 10.2841 117.049 10.821 117.043 11.4062V13.2216C117.043 13.983 117.183 14.6364 117.461 15.1818C117.739 15.7216 118.129 16.1364 118.629 16.4261C119.129 16.7102 119.714 16.8523 120.384 16.8523C120.833 16.8523 121.239 16.7898 121.603 16.6648C121.967 16.5341 122.282 16.3438 122.549 16.0938C122.816 15.8438 123.018 15.5341 123.154 15.1648L126.035 15.4886C125.853 16.25 125.506 16.9148 124.995 17.483C124.489 18.0455 123.842 18.483 123.052 18.7955C122.262 19.1023 121.359 19.2557 120.342 19.2557Z" fill="white"/>
</g>
</g>
<defs>
<filter id="filter0_d_643_3927" x="0.400391" y="0.70166" width="129.762" height="96.2983" filterUnits="userSpaceOnUse" color-interpolation-filters="sRGB">
<feFlood flood-opacity="0" result="BackgroundImageFix"/>
<feColorMatrix in="SourceAlpha" type="matrix" values="0 0 0 0 0 0 0 0 0 0 0 0 0 0 0 0 0 0 127 0" result="hardAlpha"/>
<feOffset dy="4"/>
<feGaussianBlur stdDeviation="2"/>
<feComposite in2="hardAlpha" operator="out"/>
<feColorMatrix type="matrix" values="0 0 0 0 0 0 0 0 0 0 0 0 0 0 0 0 0 0 0.25 0"/>
<feBlend mode="normal" in2="BackgroundImageFix" result="effect1_dropShadow_643_3927"/>
<feBlend mode="normal" in="SourceGraphic" in2="effect1_dropShadow_643_3927" result="shape"/>
</filter>
<filter id="filter1_d_643_3927" x="16.3037" y="30.3335" width="97.3926" height="46.9653" filterUnits="userSpaceOnUse" color-interpolation-filters="sRGB">
<feFlood flood-opacity="0" result="BackgroundImageFix"/>
<feColorMatrix in="SourceAlpha" type="matrix" values="0 0 0 0 0 0 0 0 0 0 0 0 0 0 0 0 0 0 127 0" result="hardAlpha"/>
<feOffset dy="7"/>
<feGaussianBlur stdDeviation="2"/>
<feComposite in2="hardAlpha" operator="out"/>
<feColorMatrix type="matrix" values="0 0 0 0 0 0 0 0 0 0 0 0 0 0 0 0 0 0 0.51 0"/>
<feBlend mode="normal" in2="BackgroundImageFix" result="effect1_dropShadow_643_3927"/>
<feBlend mode="normal" in="SourceGraphic" in2="effect1_dropShadow_643_3927" result="shape"/>
</filter>
<filter id="filter2_d_643_3927" x="0.400391" y="0.70166" width="129.762" height="29.5542" filterUnits="userSpaceOnUse" color-interpolation-filters="sRGB">
<feFlood flood-opacity="0" result="BackgroundImageFix"/>
<feColorMatrix in="SourceAlpha" type="matrix" values="0 0 0 0 0 0 0 0 0 0 0 0 0 0 0 0 0 0 127 0" result="hardAlpha"/>
<feOffset dy="7"/>
<feGaussianBlur stdDeviation="2"/>
<feComposite in2="hardAlpha" operator="out"/>
<feColorMatrix type="matrix" values="0 0 0 0 0 0 0 0 0 0 0 0 0 0 0 0 0 0 0.51 0"/>
<feBlend mode="normal" in2="BackgroundImageFix" result="effect1_dropShadow_643_3927"/>
<feBlend mode="normal" in="SourceGraphic" in2="effect1_dropShadow_643_3927" result="shape"/>
</filter>
</defs>
</svg>
